<svg width="60" height="60" viewBox="0 0 60 60" fill="none" xmlns="http://www.w3.org/2000/svg">
<g clip-path="url(#clip0_4196_3711)">
<path d="M44.4192 31.1916C35.8279 31.1916 28.8384 24.2019 28.8384 15.6107C28.8384 7.01941 35.8278 0.0298767 44.4192 0.0298767C53.0105 0.0298767 60.0001 7.01929 60.0001 15.6107C60.0001 24.202 53.0104 31.1916 44.4192 31.1916Z" fill="#FFCDD1"/>
<path d="M37.3618 10.6117C38.4809 8.93296 40.9476 8.93296 42.0667 10.6117M46.7717 10.6117C47.8908 8.93296 50.3575 8.93296 51.4766 10.6117M8.74234 4.43296L6.2923 6.10968C0.931322 9.77858 -0.440357 17.0988 3.22855 22.4598L24.6086 53.6999C28.2775 59.0608 35.5976 60.4325 40.9586 56.7636L43.4086 55.0869L8.74234 4.43296ZM8.74234 4.43296L19.1423 19.6291L22.3935 17.4041C25.0739 15.5696 25.7598 11.9096 23.9253 9.22909L20.1686 3.73979C18.3341 1.05925 14.674 0.373465 11.9936 2.20792L8.74234 4.43296ZM44.4454 24.0208H44.393C40.5098 24.0208 37.3618 20.8728 37.3618 16.9896V15.3166H51.4766V16.9896C51.4766 20.8728 48.3286 24.0208 44.4454 24.0208Z" stroke="#1A2A5B" stroke-width="2.34375" stroke-miterlimit="10" stroke-linecap="round" stroke-linejoin="round"/>
<path d="M46.66 52.862L43.4087 55.087L33.0088 39.8909L36.26 37.6658C38.9405 35.8314 42.6006 36.5173 44.435 39.1977L48.1917 44.687C50.0263 47.3674 49.3404 51.0274 46.66 52.862Z" stroke="#1A2A5B" stroke-width="2.34375" stroke-miterlimit="10" stroke-linecap="round" stroke-linejoin="round"/>
</g>
<defs>
<clipPath id="clip0_4196_3711">
<rect width="60" height="60" fill="white"/>
</clipPath>
</defs>
</svg>
