<svg width="60" height="60" viewBox="0 0 60 60" fill="none" xmlns="http://www.w3.org/2000/svg">
<g clip-path="url(#clip0_4196_3723)">
<path fill-rule="evenodd" clip-rule="evenodd" d="M28.1226 38.4169C5.78536 39.6994 8.48217 51.4483 30.0207 51.6059C51.559 51.4481 54.2558 39.6993 31.9186 38.4169L30.0206 42.5161L28.1226 38.4169Z" fill="#FFCDD1"/>
<path d="M52.5896 36.5824C48.3224 34.324 42.5058 32.7675 36.1067 32.1602L50.2264 1.66418C50.3213 1.45924 50.3549 1.23126 50.3233 1.00766C50.2916 0.784052 50.196 0.574356 50.048 0.403795C49.9 0.233234 49.7059 0.109075 49.4889 0.0462556C49.272 -0.0165639 49.0416 -0.0153678 48.8253 0.0497L30.0206 5.70864L11.2159 0.0495828C10.9997 -0.0155394 10.7692 -0.0167741 10.5522 0.0460274C10.3353 0.108829 10.1411 0.23299 9.9931 0.403567C9.84507 0.574144 9.74949 0.783868 9.71786 1.0075C9.68624 1.23112 9.71992 1.45913 9.81485 1.66406L23.9345 32.1602C14.624 33.1073 0.641831 36.6363 0.0205078 45.9372C0.822064 56.7714 19.375 60.0237 30.0204 59.9999C37.8821 59.9998 45.2913 58.6227 50.8835 56.1221C62.0574 51.3622 63.2983 42.125 52.5896 36.5824ZM29.6829 8.05472C29.9032 8.1208 30.1381 8.1208 30.3584 8.05472L47.0042 3.04534L30.0206 39.7271L13.037 3.04534L29.6829 8.05472ZM49.9268 53.9825C39.5491 58.8442 20.4921 58.8443 10.1145 53.9822C5.18926 51.7802 2.36447 48.8477 2.36447 45.9373C3.039 38.2341 16.9033 35.0666 24.9813 34.421L28.9573 43.0084C29.0512 43.2113 29.2013 43.3831 29.3897 43.5035C29.5781 43.6238 29.797 43.6878 30.0206 43.6878C30.2442 43.6878 30.4631 43.6238 30.6515 43.5035C30.84 43.3831 30.99 43.2113 31.084 43.0084L35.06 34.421C41.4852 34.9409 47.3108 36.4405 51.4932 38.6539C60.5262 43.3648 59.2406 49.8906 49.9268 53.9825Z" fill="#1A2A5B"/>
</g>
<defs>
<clipPath id="clip0_4196_3723">
<rect width="60" height="60" fill="white"/>
</clipPath>
</defs>
</svg>
