<svg width="60" height="60" viewBox="0 0 60 60" fill="none" xmlns="http://www.w3.org/2000/svg">
<g clip-path="url(#clip0_4196_3717)">
<path d="M50.5915 15.613L58.8281 22.3518V55.8865C58.8281 57.5114 57.5114 58.8281 55.8865 58.8281H4.11352C2.48859 58.8281 1.17188 57.5114 1.17188 55.8865V22.3518L9.40852 15.613" stroke="#1A2A5B" stroke-width="2.34375" stroke-miterlimit="10" stroke-linecap="round" stroke-linejoin="round"/>
<path d="M51.7969 28.4072V0H8.20312V28.4072L30 47.0616L51.7969 28.4072Z" fill="#FFCDD1"/>
<path d="M57.9386 57.9939L38.5178 39.7604M21.4821 39.7604L2.06145 57.9939M17.645 7.05515H30.4942M17.645 12.9384H42.355M17.645 18.8217H42.355M17.645 24.705H42.355M17.645 30.5883H42.355M58.8281 22.3517L30 47.0616L1.17188 22.3517" stroke="#1A2A5B" stroke-width="2.34375" stroke-miterlimit="10" stroke-linecap="round" stroke-linejoin="round"/>
</g>
<defs>
<clipPath id="clip0_4196_3717">
<rect width="60" height="60" fill="white"/>
</clipPath>
</defs>
</svg>
