<svg width="60" height="60" viewBox="0 0 60 60" fill="none" xmlns="http://www.w3.org/2000/svg">
<g clip-path="url(#clip0_4196_3728)">
<path d="M5.88281 20H15.2946V29.6833H5.88281V20ZM18.824 20H28.2358V29.6833H18.824V20ZM31.7652 20H41.1769V29.6833H31.7652V20ZM44.7063 20H54.1181V29.6833H44.7063V20ZM5.88281 32.2171H15.2946V41.9004H5.88281V32.2171ZM18.824 32.2171H28.2358V41.9004H18.824V32.2171ZM31.7652 32.2171H41.1769V41.9004H31.7652V32.2171ZM44.7063 32.2171H54.1181V41.9004H44.7063V32.2171ZM18.824 44.4343H28.2358V54.1176H18.824V44.4343ZM31.7652 44.4343H41.1769V54.1176H31.7652V44.4343ZM44.7063 44.4343H54.1181V54.1176H44.7063V44.4343Z" fill="#FFCDD1"/>
<path d="M9.41205 5.88232H4.70617C2.75699 5.88232 1.17676 7.46256 1.17676 9.41174V55.2941C1.17676 57.2433 2.75699 58.8235 4.70617 58.8235H55.2944C57.2436 58.8235 58.8238 57.2433 58.8238 55.2941V9.41174C58.8238 7.46256 57.2436 5.88232 55.2944 5.88232H50.5885M21.1768 5.88232H15.2944M32.9415 5.88232H27.0591M44.7062 5.88232H38.8238" stroke="#1A2A5B" stroke-width="2.35294" stroke-miterlimit="10" stroke-linecap="round" stroke-linejoin="round"/>
<path d="M1.17676 15.2941H58.8238M7.05911 45.8823L14.1179 52.9412M14.1179 45.8823L7.05911 52.9412M12.9415 10.5882H11.765C10.4655 10.5882 9.41205 9.53481 9.41205 8.23528V3.52939C9.41205 2.22986 10.4655 1.17645 11.765 1.17645H12.9415C14.241 1.17645 15.2944 2.22986 15.2944 3.52939V8.23528C15.2944 9.53481 14.241 10.5882 12.9415 10.5882ZM24.7062 10.5882H23.5297C22.2302 10.5882 21.1768 9.53481 21.1768 8.23528V3.52939C21.1768 2.22986 22.2302 1.17645 23.5297 1.17645H24.7062C26.0057 1.17645 27.0591 2.22986 27.0591 3.52939V8.23528C27.0591 9.53481 26.0057 10.5882 24.7062 10.5882ZM36.4709 10.5882H35.2944C33.9949 10.5882 32.9415 9.53481 32.9415 8.23528V3.52939C32.9415 2.22986 33.9949 1.17645 35.2944 1.17645H36.4709C37.7704 1.17645 38.8238 2.22986 38.8238 3.52939V8.23528C38.8238 9.53481 37.7704 10.5882 36.4709 10.5882ZM48.2356 10.5882H47.0591C45.7596 10.5882 44.7062 9.53481 44.7062 8.23528V3.52939C44.7062 2.22986 45.7596 1.17645 47.0591 1.17645H48.2356C49.5351 1.17645 50.5885 2.22986 50.5885 3.52939V8.23528C50.5885 9.53481 49.5351 10.5882 48.2356 10.5882Z" stroke="#1A2A5B" stroke-width="2.35294" stroke-miterlimit="10" stroke-linecap="round" stroke-linejoin="round"/>
</g>
<defs>
<clipPath id="clip0_4196_3728">
<rect width="60" height="60" fill="white"/>
</clipPath>
</defs>
</svg>
