<svg width="201" height="95" viewBox="0 0 201 95" fill="none" xmlns="http://www.w3.org/2000/svg">
<path d="M74.5497 38.5443C68.3397 46.6445 62.3326 54.477 56.0061 62.7282V1.36229C59.7692 1.36229 63.6143 1.30187 67.4507 1.45291C67.8305 1.46585 68.4562 2.76482 68.4649 3.46824C68.5425 9.79471 68.5123 16.1212 68.5123 22.4476C68.5123 23.2331 68.5123 24.0142 68.5123 25.5289C72.8105 19.9361 76.6858 14.8999 80.5525 9.8508C82.3304 7.5334 83.9746 5.1081 85.908 2.93311C86.6545 2.09159 88.0182 1.39681 89.1273 1.34934C93.5636 1.17241 98.0129 1.27597 103.075 1.27597C98.7767 6.88608 94.9014 11.9438 91.0261 17.0015C88.7087 20.0267 86.4388 23.0906 84.0523 26.0597C83.1504 27.1817 83.1418 27.9887 83.8754 29.2618C90.1544 40.1324 96.3341 51.0592 102.738 62.3139C101.737 62.4391 100.917 62.616 100.093 62.6333C97.7367 62.6764 95.3373 62.3743 93.0285 62.7239C89.3517 63.2763 87.5349 61.6235 85.9037 58.5379C82.3952 51.8835 78.4897 45.4318 74.541 38.5443H74.5497Z" fill="#1A2A5B"/>
<path d="M154.067 12.9019C151.132 15.1675 148.267 17.2908 145.509 19.5348C144.059 20.7172 143.416 19.6513 142.514 18.8271C137.607 14.339 131.868 12.6387 125.412 14.3735C118.498 16.2335 114.032 20.7647 112.323 27.7471C110.385 35.6617 114.209 44.0251 121.321 47.7666C128.804 51.7066 137.741 50.1875 143.321 44.0294C143.804 43.4943 144.318 42.9851 144.948 42.3248C148.284 44.8882 151.551 47.3911 154.792 49.8811C149.82 58.3438 136.956 64.6875 124.536 62.3356C109.738 59.5349 99.3464 47.7277 98.9149 32.3C98.5524 19.3147 106.73 6.83438 120.371 2.4326C133.49 -1.80087 147.382 3.26549 154.067 12.8976V12.9019Z" fill="#A71E28"/>
<path d="M26.005 1.62134C34.4331 21.7832 42.8612 41.9494 51.4447 62.4867C46.853 62.4867 42.68 62.5557 38.5155 62.4003C37.9588 62.3788 37.2511 61.2999 36.9404 60.5706C33.4276 52.3065 29.9795 44.0165 26.5099 35.7351C26.3243 35.2906 26.1172 34.8547 25.6856 33.901C24.3565 37.0643 23.187 39.8348 22.0305 42.6096C19.4757 48.729 16.9511 54.8612 14.3446 60.959C14.077 61.5891 13.3434 62.4522 12.7997 62.4694C8.69134 62.5946 4.57439 62.5384 0 62.5384C8.57915 41.9494 16.977 21.7875 25.3793 1.62564C25.5864 1.62564 25.7935 1.62564 26.0007 1.62564L26.005 1.62134Z" fill="#1A2A5B"/>
<path d="M175.299 1.47464H187.887C187.977 1.97092 188.081 2.28595 188.081 2.59667C188.081 15.5603 188.266 28.5283 187.995 41.4877C187.775 52.0174 178.695 61.3863 168.169 62.4867C165.753 62.737 163.306 62.7802 160.876 62.7413C160.294 62.7327 159.232 62.0379 159.219 61.6279C159.094 57.7656 159.141 53.8989 159.141 49.769C160.376 49.769 161.325 49.769 162.274 49.769C170.025 49.7647 175.117 44.8667 175.199 37.0988C175.311 26.2411 175.273 15.3834 175.299 4.52568C175.299 3.64101 175.299 2.75635 175.299 1.47034V1.47464Z" fill="#A71E28"/>
<path d="M32.1243 62.4522H19.152C21.2795 56.95 23.2862 51.7628 25.2929 46.5713C25.5 46.5713 25.7115 46.5627 25.9186 46.5583C27.9426 51.7499 29.9709 56.937 32.12 62.4522H32.1243Z" fill="#1A2A5B"/>
<path d="M32.7456 87.9258C31.264 87.9258 29.9837 87.6022 28.9049 86.9548C27.826 86.2931 26.9917 85.3797 26.4019 84.2145C25.8265 83.035 25.5388 81.6684 25.5388 80.1148C25.5388 78.5613 25.8265 77.2019 26.4019 76.0367C26.9917 74.8571 27.826 73.9437 28.9049 73.2964C29.9837 72.6347 31.264 72.3038 32.7456 72.3038C34.4862 72.3038 35.8959 72.7138 36.9748 73.5337C38.0537 74.3537 38.7441 75.5117 39.0462 77.0077H37.0395C36.8094 76.0727 36.3419 75.3247 35.637 74.7636C34.9322 74.2026 33.9684 73.9221 32.7456 73.9221C31.6668 73.9221 30.7246 74.1739 29.919 74.6773C29.1135 75.1664 28.4877 75.8785 28.0418 76.8135C27.6102 77.7341 27.3945 78.8346 27.3945 80.1148C27.3945 81.3951 27.6102 82.5027 28.0418 83.4377C28.4877 84.3584 29.1135 85.0704 29.919 85.5739C30.7246 86.063 31.6668 86.3075 32.7456 86.3075C33.9684 86.3075 34.9393 86.0342 35.6586 85.4876C36.3922 84.9266 36.8741 84.1929 37.1043 83.2867H39.0462C38.7441 84.7396 38.0537 85.876 36.9748 86.6959C35.8959 87.5159 34.4862 87.9258 32.7456 87.9258Z" fill="#1A2A5B"/>
<path d="M46.3784 87.6669L51.5354 72.5628H54.3405L59.4111 87.6669H57.4908L52.9811 73.9006H52.8948L48.2772 87.6669H46.3784ZM48.9246 82.9415L49.4424 81.4742H56.2824L56.8003 82.9415H48.9246Z" fill="#1A2A5B"/>
<path d="M69.0517 87.6669V72.5628H74.0145C75.194 72.5628 76.165 72.757 76.9274 73.1453C77.6898 73.5337 78.2508 74.0588 78.6105 74.7205C78.9845 75.3822 79.1715 76.1302 79.1715 76.9645C79.1715 77.7845 78.9917 78.5253 78.632 79.187C78.2724 79.8487 77.7114 80.3809 76.949 80.7837C76.1866 81.1721 75.2084 81.3663 74.0145 81.3663H70.8642V87.6669H69.0517ZM70.8642 79.8343H73.9713C75.1653 79.8343 76.0212 79.5754 76.539 79.0575C77.0569 78.5397 77.3158 77.842 77.3158 76.9645C77.3158 76.0439 77.0569 75.3319 76.539 74.8284C76.0212 74.3249 75.1653 74.0732 73.9713 74.0732H70.8642V79.8343Z" fill="#1A2A5B"/>
<path d="M93.5938 87.6669V72.5628H95.4063V87.6669H93.5938Z" fill="#1A2A5B"/>
<path d="M114.761 87.6669V74.0516H110.252V72.5628H121.083V74.0516H116.574V87.6669H114.761Z" fill="#1A2A5B"/>
<path d="M130.111 87.6669L135.268 72.5628H138.073L143.144 87.6669H141.224L136.714 73.9006H136.628L132.01 87.6669H130.111ZM132.657 82.9415L133.175 81.4742H140.015L140.533 82.9415H132.657Z" fill="#1A2A5B"/>
<path d="M153.333 87.6669V72.5628H155.145V86.2212H162.18V87.6669H153.333Z" fill="#1A2A5B"/>
</svg>
