<svg width="112" height="112" viewBox="0 0 112 112" fill="none" xmlns="http://www.w3.org/2000/svg">
<path d="M18.6662 46.6621H9.33379C9.33379 82.7457 38.5826 112 74.6662 112V102.666C43.736 102.666 18.6662 77.5923 18.6662 46.6621Z" fill="#A71E28"/>
<path d="M74.6662 9.33379V0C48.8909 0 28 20.8909 28 46.6621C28 72.4374 48.8909 93.3338 74.6662 93.3338V84C54.0457 84 37.3338 67.2839 37.3338 46.6635C37.3338 26.0498 54.0455 9.33379 74.6662 9.33379Z" fill="#A71E28"/>
<path d="M74.6662 18.6663C59.1989 18.6663 46.6662 31.199 46.6662 46.6622C46.6662 62.1294 59.1989 74.6663 74.6662 74.6663V65.3338C64.3538 65.3338 56 56.9746 56 46.6663C56 36.3579 64.3538 28 74.6662 28C84.98 28 93.3338 36.3579 93.3338 46.6663L102.666 46.6622C102.666 31.199 90.1348 18.6663 74.6662 18.6663Z" fill="#A71E28"/>
</svg>
