<svg width="112" height="112" viewBox="0 0 112 112" fill="none" xmlns="http://www.w3.org/2000/svg">
<g clip-path="url(#clip0_4319_19266)">
<path d="M83.7271 37.3338C81.4029 16.3338 63.6188 0 42 0C18.8035 0 0 18.8035 0 42C0 63.6188 16.3338 81.4029 37.3338 83.7271V112H112V37.3338H83.7271ZM37.3338 74.2924C21.5291 72.0188 9.33379 58.4235 9.33379 42C9.33379 23.9848 23.9903 9.33379 42 9.33379C58.4235 9.33379 72.0188 21.5291 74.2924 37.3338H37.3338V74.2924ZM74.2924 46.6662C72.2373 60.9391 60.9391 72.2386 46.6662 74.2924V46.6662H74.2924ZM102.666 102.666H46.6662V83.7271C66.1303 81.5711 81.5711 66.132 83.7271 46.6662H102.666V102.666Z" fill="#A71E28"/>
</g>
<defs>
<clipPath id="clip0_4319_19266">
<rect width="112" height="112" fill="white"/>
</clipPath>
</defs>
</svg>
