<svg width="112" height="112" viewBox="0 0 112 112" fill="none" xmlns="http://www.w3.org/2000/svg">
<path d="M62.5997 23.0005L79.0005 6.60379L72.3967 0L56 16.4024L39.5976 0L32.9938 6.59969L75.8015 49.4003L82.3998 42.8023L62.5997 23.0005ZM112 39.5976L105.4 32.9993L62.5997 75.8015L69.1977 82.3998L88.9938 62.5997L105.396 79.0005L112 72.3967L95.5976 56L112 39.5976ZM36.2026 62.5997L29.6045 69.1977L49.4061 88.9938L33.0036 105.396L39.6074 112L56.0041 95.5976L72.4065 112L79.0062 105.4L36.2026 62.5997ZM42.8023 29.5961L23.0062 49.4003L6.60379 32.9938L0 39.5976L16.4024 56L0 72.4024L6.59969 79.0005L49.4003 36.1941L42.8023 29.5961Z" fill="#A71E28"/>
</svg>
