<svg width="112" height="112" viewBox="0 0 112 112" fill="none" xmlns="http://www.w3.org/2000/svg">
<g clip-path="url(#clip0_4319_19235)">
<path d="M73.1445 0H28V9.33379H73.1445C89.4504 9.33379 102.666 22.5553 102.666 38.8598C102.666 55.1627 89.4515 68.3774 73.1445 68.3774H28V77.7112H73.1445C94.605 77.7112 112 60.3162 112 38.8598C112 17.4005 94.605 0 73.1445 0Z" fill="#A71E28"/>
<path d="M38.8555 43.6226H84V34.2888H38.8555C17.395 34.2888 0 51.6838 0 73.1402C0 94.5996 17.395 112 38.8555 112H84V102.666H38.8555C22.5496 102.666 9.33379 89.4417 9.33379 73.1402C9.33379 56.8373 22.5485 43.6226 38.8555 43.6226Z" fill="#A71E28"/>
</g>
<defs>
<clipPath id="clip0_4319_19235">
<rect width="112" height="112" fill="white"/>
</clipPath>
</defs>
</svg>
