<svg width="112" height="112" viewBox="0 0 112 112" fill="none" xmlns="http://www.w3.org/2000/svg">
<g clip-path="url(#clip0_4319_19281)">
<path d="M112 33.8338C112 15.1479 96.8521 0 78.1662 0C69.6765 0 61.9374 3.14863 56 8.31332C50.0571 3.14863 42.3235 0 33.8338 0C15.1479 0 0 15.1479 0 33.8338C0 42.3235 3.14863 50.0626 8.31332 56C3.14863 61.9374 0 69.6765 0 78.1662C0 96.8521 15.1479 112 33.8338 112C42.3235 112 50.0571 108.851 56 103.687C61.9374 108.851 69.6765 112 78.1662 112C96.8521 112 112 96.8521 112 78.1662C112 69.6768 108.852 61.9377 103.687 56.0005C108.853 50.0637 112 42.3216 112 33.8338ZM49.8105 96.5817C45.5096 100.324 39.967 102.666 33.8338 102.666C20.3265 102.666 9.33379 91.6735 9.33379 78.1662C9.33379 64.6589 20.3265 53.6662 33.8338 53.6662C39.9771 53.6662 45.5309 56.0183 49.8386 59.7688C46.3794 65.0677 44.3338 71.3664 44.3338 78.1662C44.3338 84.966 46.3567 91.2827 49.8105 96.5817ZM33.8338 44.3338C27.0339 44.3338 20.7173 46.3567 15.4126 49.8105C11.6761 45.5096 9.33379 39.9629 9.33379 33.8338C9.33379 20.3265 20.3265 9.33379 33.8338 9.33379C47.3411 9.33379 58.3338 20.3265 58.3338 33.8338C58.3338 39.9771 55.9817 45.5309 52.2367 49.8386C46.9364 46.3791 40.6336 44.3338 33.8338 44.3338ZM78.1662 102.666C64.6589 102.666 53.6662 91.6735 53.6662 78.1662C53.6662 72.0229 56.0183 66.4691 59.7633 62.1614C65.0636 65.6206 71.3664 67.6662 78.1662 67.6662C84.966 67.6662 91.2827 65.6433 96.5874 62.1895C100.324 66.4904 102.666 72.0371 102.666 78.1662C102.666 91.6735 91.6735 102.666 78.1662 102.666ZM78.1662 58.3338C72.0229 58.3338 66.4691 55.9817 62.1657 52.2271C65.6209 46.9323 67.6665 40.6336 67.6665 33.8338C67.6665 27.0339 65.6436 20.7173 62.1939 15.418C66.4904 11.6758 72.0374 9.33352 78.1665 9.33352C91.6738 9.33352 102.666 20.3263 102.666 33.8335C102.666 47.3411 91.6735 58.3338 78.1662 58.3338Z" fill="#A71E28"/>
</g>
<defs>
<clipPath id="clip0_4319_19281">
<rect width="112" height="112" fill="white"/>
</clipPath>
</defs>
</svg>
