<svg width="112" height="112" viewBox="0 0 112 112" fill="none" xmlns="http://www.w3.org/2000/svg">
<g clip-path="url(#clip0_4319_19254)">
<path d="M0 0V51.3338H51.3338V0H0ZM42 42H9.33379V9.33379H42V42ZM102.668 60.6676H70C64.8676 60.6676 60.6676 64.8676 60.6676 70V102.668C60.6676 107.797 64.8676 112 70 112H102.668C107.797 112 112 107.797 112 102.668V70C112 64.8676 107.797 60.6676 102.668 60.6676ZM102.668 102.668H70V70H102.668V102.668ZM86.3324 0C72.1602 0 60.6676 11.4926 60.6676 25.6717C60.6676 39.8396 72.1602 51.3338 86.3324 51.3338C100.507 51.3338 112 39.8398 112 25.6717C112 11.4926 100.507 0 86.3324 0ZM86.3324 42C77.315 42 70 34.685 70 25.6662C70 16.6474 77.315 9.33242 86.3324 9.33242C95.3512 9.33242 102.668 16.6474 102.668 25.6662C102.668 34.685 95.3512 42 86.3324 42ZM28 60.6676L0 112H56L28 60.6676ZM28 80.1585L40.2779 102.668H15.7221L28 80.1585Z" fill="#A71E28"/>
</g>
<defs>
<clipPath id="clip0_4319_19254">
<rect width="112" height="112" fill="white"/>
</clipPath>
</defs>
</svg>
