<svg width="142" height="72" viewBox="0 0 142 72" fill="none" xmlns="http://www.w3.org/2000/svg">
<path d="M56.2623 28.9197C51.5757 35.0329 47.0421 40.9441 42.2676 47.1712V0.858627C45.1076 0.858627 48.0094 0.813028 50.9048 0.927018C51.1914 0.936788 51.6636 1.91711 51.6701 2.44798C51.7288 7.22253 51.706 11.9971 51.706 16.7716C51.706 17.3644 51.706 17.9539 51.706 19.097C54.9498 14.8762 57.8744 11.0754 60.7926 7.26487C62.1344 5.51593 63.3753 3.68558 64.8344 2.04412C65.3978 1.40903 66.427 0.884682 67.264 0.848856C70.612 0.715325 73.9699 0.793485 77.7902 0.793485C74.5463 5.0274 71.6216 8.84444 68.697 12.6615C66.9481 14.9445 65.235 17.2569 63.4339 19.4976C62.7532 20.3444 62.7467 20.9535 63.3004 21.9142C68.0391 30.1183 72.7029 38.3646 77.5361 46.8585C76.7805 46.953 76.1617 47.0865 75.5397 47.0995C73.7614 47.1321 71.9506 46.9041 70.2082 47.1679C67.4333 47.5848 66.0622 46.3374 64.8311 44.0088C62.1833 38.9867 59.2358 34.1177 56.2558 28.9197H56.2623Z" fill="white"/>
<path d="M116.273 9.56754C114.059 11.2774 111.896 12.8798 109.815 14.5733C108.721 15.4657 108.235 14.6613 107.555 14.0392C103.852 10.6521 99.52 9.36887 94.6477 10.6781C89.4302 12.0818 86.0594 15.5015 84.7696 20.7711C83.3073 26.7442 86.1929 33.056 91.5602 35.8797C97.2076 38.8532 103.953 37.7068 108.164 33.0593C108.528 32.6554 108.916 32.2711 109.392 31.7728C111.909 33.7074 114.375 35.5964 116.82 37.4756C113.068 43.8623 103.36 48.6499 93.9866 46.8749C82.8188 44.7612 74.9763 35.8504 74.6506 24.2071C74.377 14.4072 80.5487 4.98839 90.8437 1.66639C100.745 -1.52859 111.228 2.29497 116.273 9.56428V9.56754Z" fill="#A71E28"/>
<path d="M19.6258 1.05396C25.9865 16.27 32.3471 31.4893 38.825 46.9887C35.3597 46.9887 32.2104 47.0408 29.0675 46.9236C28.6473 46.9073 28.1132 46.0931 27.8787 45.5427C25.2276 39.3058 22.6254 33.0493 20.0069 26.7994C19.8668 26.464 19.7105 26.135 19.3848 25.4153C18.3817 27.8025 17.4991 29.8934 16.6263 31.9876C14.6982 36.6058 12.7929 41.2338 10.8258 45.8358C10.6239 46.3113 10.0702 46.9627 9.65984 46.9757C6.55931 47.0701 3.45227 47.0278 0 47.0278C6.47464 31.4893 12.8125 16.2733 19.1536 1.05721C19.3099 1.05721 19.4663 1.05721 19.6226 1.05721L19.6258 1.05396Z" fill="white"/>
<path d="M132.297 0.943436H141.797C141.866 1.31797 141.944 1.55573 141.944 1.79022C141.944 11.5738 142.084 21.3607 141.879 31.1411C141.712 39.0878 134.86 46.1584 126.917 46.9889C125.093 47.1778 123.246 47.2104 121.412 47.1811C120.973 47.1746 120.172 46.6502 120.162 46.3408C120.067 43.4259 120.103 40.5078 120.103 37.391C121.035 37.391 121.751 37.391 122.468 37.391C128.317 37.3877 132.16 33.6912 132.222 27.8288C132.307 19.6346 132.277 11.4403 132.297 3.24604C132.297 2.57838 132.297 1.91073 132.297 0.940186V0.943436Z" fill="#A71E28"/>
<path d="M24.244 46.963H14.4539C16.0595 42.8105 17.5739 38.8958 19.0884 34.9778C19.2447 34.9778 19.4043 34.9713 19.5606 34.968C21.0881 38.886 22.6188 42.8008 24.2407 46.963H24.244Z" fill="white"/>
<path d="M24.713 66.1878C23.5948 66.1878 22.6286 65.9435 21.8144 65.455C21.0002 64.9556 20.3705 64.2662 19.9254 63.3869C19.4912 62.4967 19.274 61.4653 19.274 60.2929C19.274 59.1204 19.4912 58.0945 19.9254 57.2151C20.3705 56.3249 21.0002 55.6356 21.8144 55.147C22.6286 54.6476 23.5948 54.3979 24.713 54.3979C26.0266 54.3979 27.0905 54.7074 27.9047 55.3262C28.7189 55.945 29.24 56.8189 29.468 57.9479H27.9536C27.7799 57.2423 27.4271 56.6778 26.8951 56.2544C26.3631 55.831 25.6358 55.6193 24.713 55.6193C23.8988 55.6193 23.1877 55.8093 22.5798 56.1892C21.9718 56.5583 21.4996 57.0957 21.163 57.8014C20.8373 58.4962 20.6745 59.3267 20.6745 60.2929C20.6745 61.2591 20.8373 62.095 21.163 62.8006C21.4996 63.4954 21.9718 64.0328 22.5798 64.4128C23.1877 64.7819 23.8988 64.9665 24.713 64.9665C25.6358 64.9665 26.3686 64.7602 26.9114 64.3477C27.4651 63.9243 27.8287 63.3706 28.0024 62.6867H29.468C29.24 63.7831 28.7189 64.6408 27.9047 65.2596C27.0905 65.8784 26.0266 66.1878 24.713 66.1878Z" fill="white"/>
<path d="M35.0016 65.9924L38.8935 54.5934H41.0105L44.8373 65.9924H43.388L39.9846 55.603H39.9195L36.4346 65.9924H35.0016ZM36.9231 62.4261L37.314 61.3188H42.4761L42.8669 62.4261H36.9231Z" fill="white"/>
<path d="M52.113 65.9924V54.5934H55.8584C56.7486 54.5934 57.4814 54.7399 58.0568 55.033C58.6321 55.3262 59.0555 55.7224 59.3269 56.2218C59.6092 56.7212 59.7503 57.2857 59.7503 57.9154C59.7503 58.5342 59.6146 59.0933 59.3432 59.5926C59.0718 60.092 58.6484 60.4937 58.0731 60.7977C57.4977 61.0908 56.7595 61.2374 55.8584 61.2374H53.4809V65.9924H52.113ZM53.4809 60.0812H55.8258C56.7269 60.0812 57.3728 59.8858 57.7637 59.4949C58.1545 59.1041 58.3499 58.5776 58.3499 57.9154C58.3499 57.2206 58.1545 56.6832 57.7637 56.3032C57.3728 55.9232 56.7269 55.7333 55.8258 55.7333H53.4809V60.0812Z" fill="white"/>
<path d="M70.6348 65.9924V54.5934H72.0027V65.9924H70.6348Z" fill="white"/>
<path d="M86.6097 65.9924V55.717H83.2063V54.5934H91.381V55.717H87.9776V65.9924H86.6097Z" fill="white"/>
<path d="M98.1944 65.9924L102.086 54.5934H104.203L108.03 65.9924H106.581L103.177 55.603H103.112L99.6274 65.9924H98.1944ZM100.116 62.4261L100.507 61.3188H105.669L106.06 62.4261H100.116Z" fill="white"/>
<path d="M115.72 65.9924V54.5934H117.087V64.9013H122.396V65.9924H115.72Z" fill="white"/>
</svg>
