<svg width="40" height="40" viewBox="0 0 40 40" fill="none" xmlns="http://www.w3.org/2000/svg">
<g clip-path="url(#clip0_5032_6004)">
<path d="M30.811 5.37649C33.4703 5.37649 35.6125 6.29985 37.2376 8.14657C38.8627 10.0672 39.6753 12.6156 39.6753 15.792C39.6753 19.8548 38.4934 23.659 36.1296 27.2047C33.7658 30.7504 30.848 33.3728 27.3761 35.0718L26.2681 33.1881C27.7455 32.0062 29.0751 30.5658 30.257 28.8668C31.365 27.1678 32.2515 25.0995 32.9163 22.6618L30.5894 21.997C28.2256 21.2583 26.3789 20.1503 25.0493 18.6729C23.6457 17.1955 22.944 15.3857 22.944 13.2435C22.944 10.8797 23.7196 8.95913 25.2709 7.48175C26.8221 6.07824 28.6688 5.37649 30.811 5.37649ZM7.54233 5.37648C10.2016 5.37649 12.3438 6.29984 13.9689 8.14657C15.594 10.0672 16.4066 12.6156 16.4066 15.792C16.4066 19.8548 15.2247 23.659 12.8609 27.2047C10.4971 30.7504 7.57927 33.3728 4.10743 35.0718L2.9994 33.1881C4.47678 32.0062 5.80641 30.5658 6.98831 28.8668C8.09634 27.1678 8.98277 25.0995 9.64759 22.6618L7.32072 21.997C4.95692 21.2583 3.1102 20.1503 1.78056 18.6729C0.37705 17.1955 -0.324701 15.3857 -0.324701 13.2435C-0.324701 10.8797 0.450922 8.95913 2.00217 7.48175C3.55341 6.07824 5.40013 5.37648 7.54233 5.37648Z" fill="white"/>
</g>
<defs>
<clipPath id="clip0_5032_6004">
<rect width="40" height="40" fill="white"/>
</clipPath>
</defs>
</svg>
