<svg width="40" height="40" viewBox="0 0 40 40" fill="none" xmlns="http://www.w3.org/2000/svg">
<g clip-path="url(#clip0_5032_6009)">
<path d="M9.18897 5.37649C6.52969 5.37649 4.38749 6.29985 2.76238 8.14657C1.13726 10.0672 0.324705 12.6156 0.324705 15.792C0.324706 19.8548 1.50661 23.659 3.87041 27.2047C6.23422 30.7504 9.15204 33.3728 12.6239 35.0718L13.7319 33.1881C12.2545 32.0062 10.9249 30.5658 9.74299 28.8668C8.63496 27.1678 7.74853 25.0995 7.08371 22.6618L9.41058 21.997C11.7744 21.2583 13.6211 20.1503 14.9507 18.6729C16.3543 17.1955 17.056 15.3857 17.056 13.2435C17.056 10.8797 16.2804 8.95913 14.7291 7.48175C13.1779 6.07824 11.3312 5.37649 9.18897 5.37649ZM32.4577 5.37648C29.7984 5.37649 27.6562 6.29984 26.0311 8.14657C24.406 10.0672 23.5934 12.6156 23.5934 15.792C23.5934 19.8548 24.7753 23.659 27.1391 27.2047C29.5029 30.7504 32.4207 33.3728 35.8926 35.0718L37.0006 33.1881C35.5232 32.0062 34.1936 30.5658 33.0117 28.8668C31.9037 27.1678 31.0172 25.0995 30.3524 22.6618L32.6793 21.997C35.0431 21.2583 36.8898 20.1503 38.2194 18.6729C39.6229 17.1955 40.3247 15.3857 40.3247 13.2435C40.3247 10.8797 39.5491 8.95913 37.9978 7.48175C36.4466 6.07824 34.5999 5.37648 32.4577 5.37648Z" fill="white"/>
</g>
<defs>
<clipPath id="clip0_5032_6009">
<rect width="40" height="40" fill="white" transform="matrix(-1 0 0 1 40 0)"/>
</clipPath>
</defs>
</svg>
